<?xml version="1.0" encoding="UTF-8" standalone="no"?>
<!DOCTYPE svg PUBLIC "-//W3C//DTD SVG 1.1//EN" "http://www.w3.org/Graphics/SVG/1.1/DTD/svg11.dtd">
<svg width="100%" height="100%" viewBox="0 0 58 58" version="1.1" xmlns="http://www.w3.org/2000/svg" xmlns:xlink="http://www.w3.org/1999/xlink" xml:space="preserve" xmlns:serif="http://www.serif.com/" style="fill-rule:evenodd;clip-rule:evenodd;stroke-linejoin:round;stroke-miterlimit:2;">
    <g>
        <path d="M23.6,56.2C27.3,54.9 30.3,53.1 33.1,51.3L33.9,50.8C36.9,48.9 39.9,46.8 42.9,44.2C49.6,38.5 53.6,32.8 55.9,26C56.8,23.2 58.2,17.8 56.5,12.7C55.3,9 53,5.9 49.7,3.6C49.3,3.3 45.2,0 37.3,0C30.1,0 22.2,2.7 13.9,8.1L13.6,8.3C13.3,8.4 13.1,8.6 12.9,8.8C12.7,8.9 12.5,9.1 12.3,9.2C10.6,10.3 9,11.6 7.4,12.9C3.8,16.2 -0.2,21.8 0,26.5C0.1,28.5 1,30.2 2.5,31.4C4,32.5 5.8,33 7.9,33C12.2,33 16.9,30.7 20.1,28.8C20.3,28.7 20.5,28.5 20.7,28.4C21.3,28 21.8,27.7 22.4,27.3L23,26.9C27.6,23.9 32.3,20.8 37.6,19C39,18.5 40.2,18.3 41.3,18.3C41.8,18.3 42.4,18.3 42.9,18.5C44.5,18.9 45.7,19.8 46.4,21.2C47.6,23.7 47.3,27.5 45.7,31.1C43.4,35.9 39.5,40.7 34,45.3C31.2,47.6 28.6,49.4 26.4,50.6L26,50.7C24.9,51.3 23.7,51.9 22.5,52.4L22.3,52.5C21.9,52.6 21.6,52.8 21.3,52.9C16,54.3 19.2,49.7 19.2,49.7C20.4,48.3 21.6,47.2 22.8,46.1C23.5,45.4 24.3,44.8 25,44L25.2,43.8C26.1,42.9 27.4,41.6 27.3,39.8C27.2,37.4 24.7,35.9 22.4,35.9L22.2,35.9C20,35.9 17.9,37.2 16.5,38.3C15.1,39.4 13.7,41 12.7,42.5C11.3,44.7 8.3,50.3 11.2,54.8C12.4,56.6 14.3,57.5 17,57.5C18.9,57.5 21.1,57 23.6,56.2Z" style="fill-rule:nonzero;"/>
    </g>
</svg>
